<?xml version="1.0" standalone="no"?>
<!DOCTYPE svg PUBLIC "-//W3C//DTD SVG 20010904//EN"
 "http://www.w3.org/TR/2001/REC-SVG-20010904/DTD/svg10.dtd">
<svg version="1.0" xmlns="http://www.w3.org/2000/svg"
 width="500.000000pt" height="500.000000pt" viewBox="0 0 500.000000 500.000000"
 preserveAspectRatio="xMidYMid meet">

<g transform="translate(0.000000,500.000000) scale(0.100000,-0.100000)"
fill="#000000" stroke="none">
<path d="M982 2643 l3 -448 193 -3 192 -2 0 53 c0 52 -1 53 -70 122 l-70 69 0
83 0 83 65 0 65 0 0 45 0 45 -65 0 -65 0 0 40 0 39 73 3 72 3 3 43 3 42 -73 0
-72 0 67 68 c64 64 67 70 67 115 l0 47 -195 0 -195 0 2 -447z m148 0 l0 -107
-55 54 -55 54 52 53 c29 29 54 53 55 53 2 0 3 -48 3 -107z"/>
<path d="M2105 2855 c-43 -15 -84 -58 -87 -90 -5 -73 14 -106 85 -141 65 -33
87 -52 87 -75 0 -20 -28 -39 -58 -39 -10 0 -39 11 -64 24 l-45 24 -23 -40
c-21 -38 -21 -40 -4 -54 11 -7 44 -21 74 -30 113 -34 217 15 227 108 4 37 1
49 -22 77 -15 17 -59 48 -96 67 -51 25 -69 40 -69 54 0 34 41 45 94 27 l46
-16 15 29 c21 40 19 47 -12 64 -45 22 -104 27 -148 11z"/>
<path d="M1455 2840 c-23 -25 -13 -67 20 -82 53 -24 100 46 57 85 -25 23 -55
21 -77 -3z"/>
<path d="M1450 2565 l0 -135 45 0 45 0 0 135 0 135 -45 0 -45 0 0 -135z"/>
<path d="M1630 2565 l0 -135 45 0 45 0 0 83 c0 90 13 117 56 117 36 0 44 -20
44 -112 l0 -88 45 0 45 0 0 109 0 109 -31 26 c-36 30 -101 35 -137 10 -20 -14
-22 -14 -22 0 0 12 -11 16 -45 16 l-45 0 0 -135z"/>
<path d="M2370 2565 l0 -135 45 0 45 0 0 78 c0 87 16 122 55 122 39 0 55 -35
55 -122 l0 -78 45 0 45 0 0 95 c0 107 -12 144 -55 163 -36 17 -96 15 -123 -4
-20 -14 -22 -14 -22 0 0 12 -11 16 -45 16 l-45 0 0 -135z"/>
<path d="M2775 2678 c-72 -57 -72 -160 0 -228 34 -32 112 -35 144 -6 19 17 21
17 21 3 0 -13 10 -17 45 -17 l45 0 0 135 0 135 -45 0 c-34 0 -45 -4 -45 -16 0
-14 -2 -14 -22 0 -34 24 -109 21 -143 -6z m128 -59 c29 -16 37 -28 37 -61 0
-49 -65 -75 -102 -41 -38 35 -16 98 40 112 2 1 13 -4 25 -10z"/>
<path d="M3120 2500 l0 -200 45 0 45 0 0 74 0 75 37 -15 c23 -10 49 -13 71 -9
47 9 98 61 107 109 10 52 -18 122 -59 147 -37 23 -103 25 -133 4 -19 -13 -22
-13 -27 0 -3 10 -19 15 -46 15 l-40 0 0 -200z m173 119 c28 -15 37 -28 37 -56
0 -30 -34 -63 -63 -63 -58 0 -78 91 -27 117 31 15 27 15 53 2z"/>
</g>
</svg>
